name rise38.3101peak57.3503fall81.6963.mot
datacolumns 19
datarows 30
range 12.31995600000000 12.36829300000000
endheader
time	ground_force1_vx	ground_force1_vy	ground_force1_vz	ground_force1_px	ground_force1_py	ground_force1_pz	ground_force2_vx	ground_force2_vy	ground_force2_vz	ground_force2_px	ground_force2_py	ground_force2_pz	ground_torque1_x	ground_torque1_y	ground_torque1_z	ground_torque2_x	ground_torque2_y	ground_torque2_z	
12.31995600000000	55.29959000000000	777.98097700000005	56.08205100000000	0.37581900000000	0.00000000000000	0.10021200000000	0.00000000000000	0.00000000000000	0.00000000000000	0.00000000000000	0.00000000000000	0.00000000000000	0.00000000000000	29.08086400000000	0.00000000000000	0.00000000000000	0.00000000000000	0.00000000000000	
12.32162100000000	54.50854900000000	780.63814900000000	56.46184200000000	0.37466900000000	0.00000000000000	0.10026200000000	0.00000000000000	0.00000000000000	0.00000000000000	0.00000000000000	0.00000000000000	0.00000000000000	0.00000000000000	29.35834200000000	0.00000000000000	0.00000000000000	0.00000000000000	0.00000000000000	
12.32329300000000	53.71175600000000	783.11857399999997	56.83183700000000	0.37353100000000	0.00000000000000	0.10031100000000	0.00000000000000	0.00000000000000	0.00000000000000	0.00000000000000	0.00000000000000	0.00000000000000	0.00000000000000	29.62964700000000	0.00000000000000	0.00000000000000	0.00000000000000	0.00000000000000	
12.32495400000000	52.91031600000000	785.42043500000000	57.19156700000000	0.37240600000000	0.00000000000000	0.10036000000000	0.00000000000000	0.00000000000000	0.00000000000000	0.00000000000000	0.00000000000000	0.00000000000000	0.00000000000000	29.89439300000000	0.00000000000000	0.00000000000000	0.00000000000000	0.00000000000000	
12.32662400000000	52.10526700000000	787.54212900000005	57.54052400000000	0.37129400000000	0.00000000000000	0.10041000000000	0.00000000000000	0.00000000000000	0.00000000000000	0.00000000000000	0.00000000000000	0.00000000000000	0.00000000000000	30.15217100000000	0.00000000000000	0.00000000000000	0.00000000000000	0.00000000000000	
12.32829200000000	51.29757900000000	789.48228500000005	57.87817100000000	0.37019500000000	0.00000000000000	0.10045900000000	0.00000000000000	0.00000000000000	0.00000000000000	0.00000000000000	0.00000000000000	0.00000000000000	0.00000000000000	30.40255200000000	0.00000000000000	0.00000000000000	0.00000000000000	0.00000000000000	
12.32995800000000	50.48815700000000	791.23977900000000	58.20394100000000	0.36910800000000	0.00000000000000	0.10050700000000	0.00000000000000	0.00000000000000	0.00000000000000	0.00000000000000	0.00000000000000	0.00000000000000	0.00000000000000	30.64509200000000	0.00000000000000	0.00000000000000	0.00000000000000	0.00000000000000	
12.33162100000000	49.67784100000000	792.81374700000003	58.51724500000000	0.36803300000000	0.00000000000000	0.10055600000000	0.00000000000000	0.00000000000000	0.00000000000000	0.00000000000000	0.00000000000000	0.00000000000000	0.00000000000000	30.87933300000000	0.00000000000000	0.00000000000000	0.00000000000000	0.00000000000000	
12.33329300000000	48.86740500000000	794.20360100000005	58.81747900000000	0.36697000000000	0.00000000000000	0.10060400000000	0.00000000000000	0.00000000000000	0.00000000000000	0.00000000000000	0.00000000000000	0.00000000000000	0.00000000000000	31.10480900000000	0.00000000000000	0.00000000000000	0.00000000000000	0.00000000000000	
12.33495800000000	48.05756200000000	795.40903600000001	59.10402200000000	0.36591900000000	0.00000000000000	0.10065200000000	0.00000000000000	0.00000000000000	0.00000000000000	0.00000000000000	0.00000000000000	0.00000000000000	0.00000000000000	31.32104800000000	0.00000000000000	0.00000000000000	0.00000000000000	0.00000000000000	
12.33662300000000	47.24896300000000	796.43005000000005	59.37624900000000	0.36487800000000	0.00000000000000	0.10070000000000	0.00000000000000	0.00000000000000	0.00000000000000	0.00000000000000	0.00000000000000	0.00000000000000	0.00000000000000	31.52757200000000	0.00000000000000	0.00000000000000	0.00000000000000	0.00000000000000	
12.33829000000000	46.44220100000000	797.26694399999997	59.63353300000000	0.36384800000000	0.00000000000000	0.10074700000000	0.00000000000000	0.00000000000000	0.00000000000000	0.00000000000000	0.00000000000000	0.00000000000000	0.00000000000000	31.72390800000000	0.00000000000000	0.00000000000000	0.00000000000000	0.00000000000000	
12.33998500000000	45.63781200000000	797.92033800000002	59.87525000000000	0.36282700000000	0.00000000000000	0.10079300000000	0.00000000000000	0.00000000000000	0.00000000000000	0.00000000000000	0.00000000000000	0.00000000000000	0.00000000000000	31.90958300000000	0.00000000000000	0.00000000000000	0.00000000000000	0.00000000000000	
12.34162100000000	44.83627900000000	798.39117699999997	60.10078200000000	0.36181500000000	0.00000000000000	0.10083900000000	0.00000000000000	0.00000000000000	0.00000000000000	0.00000000000000	0.00000000000000	0.00000000000000	0.00000000000000	32.08413400000000	0.00000000000000	0.00000000000000	0.00000000000000	0.00000000000000	
12.34329300000000	44.03803300000000	798.68073100000004	60.30953000000000	0.36081000000000	0.00000000000000	0.10088400000000	0.00000000000000	0.00000000000000	0.00000000000000	0.00000000000000	0.00000000000000	0.00000000000000	0.00000000000000	32.24710800000000	0.00000000000000	0.00000000000000	0.00000000000000	0.00000000000000	
12.34496000000000	43.24345900000000	798.79060900000002	60.50091000000000	0.35981300000000	0.00000000000000	0.10092800000000	0.00000000000000	0.00000000000000	0.00000000000000	0.00000000000000	0.00000000000000	0.00000000000000	0.00000000000000	32.39806500000000	0.00000000000000	0.00000000000000	0.00000000000000	0.00000000000000	
12.34662400000000	42.45289500000000	798.72275400000001	60.67436500000000	0.35882100000000	0.00000000000000	0.10097200000000	0.00000000000000	0.00000000000000	0.00000000000000	0.00000000000000	0.00000000000000	0.00000000000000	0.00000000000000	32.53658500000000	0.00000000000000	0.00000000000000	0.00000000000000	0.00000000000000	
12.34828700000000	41.66663800000000	798.47944900000005	60.82936400000000	0.35783400000000	0.00000000000000	0.10101500000000	0.00000000000000	0.00000000000000	0.00000000000000	0.00000000000000	0.00000000000000	0.00000000000000	0.00000000000000	32.66226500000000	0.00000000000000	0.00000000000000	0.00000000000000	0.00000000000000	
12.34995600000000	40.88494700000000	798.06331399999999	60.96541300000000	0.35685100000000	0.00000000000000	0.10105700000000	0.00000000000000	0.00000000000000	0.00000000000000	0.00000000000000	0.00000000000000	0.00000000000000	0.00000000000000	32.77472900000000	0.00000000000000	0.00000000000000	0.00000000000000	0.00000000000000	
12.35162300000000	40.10804400000000	797.47730700000000	61.08205300000000	0.35587000000000	0.00000000000000	0.10109800000000	0.00000000000000	0.00000000000000	0.00000000000000	0.00000000000000	0.00000000000000	0.00000000000000	0.00000000000000	32.87362600000000	0.00000000000000	0.00000000000000	0.00000000000000	0.00000000000000	
12.35328900000000	39.33612300000000	796.72472000000005	61.17887100000000	0.35489000000000	0.00000000000000	0.10113800000000	0.00000000000000	0.00000000000000	0.00000000000000	0.00000000000000	0.00000000000000	0.00000000000000	0.00000000000000	32.95863300000000	0.00000000000000	0.00000000000000	0.00000000000000	0.00000000000000	
12.35496100000000	38.56934700000000	795.80917299999999	61.25549500000000	0.35391000000000	0.00000000000000	0.10117700000000	0.00000000000000	0.00000000000000	0.00000000000000	0.00000000000000	0.00000000000000	0.00000000000000	0.00000000000000	33.02946200000000	0.00000000000000	0.00000000000000	0.00000000000000	0.00000000000000	
12.35663800000000	37.80785500000000	794.73460999999998	61.31160800000000	0.35292800000000	0.00000000000000	0.10121500000000	0.00000000000000	0.00000000000000	0.00000000000000	0.00000000000000	0.00000000000000	0.00000000000000	0.00000000000000	33.08585700000000	0.00000000000000	0.00000000000000	0.00000000000000	0.00000000000000	
12.35829600000000	37.05176400000000	793.50528899999995	61.34694200000000	0.35194400000000	0.00000000000000	0.10125200000000	0.00000000000000	0.00000000000000	0.00000000000000	0.00000000000000	0.00000000000000	0.00000000000000	0.00000000000000	33.12759800000000	0.00000000000000	0.00000000000000	0.00000000000000	0.00000000000000	
12.35995800000000	36.30117300000000	792.12577799999997	61.36128500000000	0.35095500000000	0.00000000000000	0.10128800000000	0.00000000000000	0.00000000000000	0.00000000000000	0.00000000000000	0.00000000000000	0.00000000000000	0.00000000000000	33.15450500000000	0.00000000000000	0.00000000000000	0.00000000000000	0.00000000000000	
12.36162700000000	35.55616800000000	790.60093700000004	61.35448600000000	0.34996100000000	0.00000000000000	0.10132200000000	0.00000000000000	0.00000000000000	0.00000000000000	0.00000000000000	0.00000000000000	0.00000000000000	0.00000000000000	33.16643700000000	0.00000000000000	0.00000000000000	0.00000000000000	0.00000000000000	
12.36329200000000	34.81681900000000	788.93591500000002	61.32645200000000	0.34895900000000	0.00000000000000	0.10135600000000	0.00000000000000	0.00000000000000	0.00000000000000	0.00000000000000	0.00000000000000	0.00000000000000	0.00000000000000	33.16329400000000	0.00000000000000	0.00000000000000	0.00000000000000	0.00000000000000	
12.36495500000000	34.08319200000000	787.13613099999998	61.27715100000000	0.34794900000000	0.00000000000000	0.10138900000000	0.00000000000000	0.00000000000000	0.00000000000000	0.00000000000000	0.00000000000000	0.00000000000000	0.00000000000000	33.14502200000000	0.00000000000000	0.00000000000000	0.00000000000000	0.00000000000000	
12.36662000000000	33.35534400000000	785.20726200000001	61.20661500000000	0.34692800000000	0.00000000000000	0.10142000000000	0.00000000000000	0.00000000000000	0.00000000000000	0.00000000000000	0.00000000000000	0.00000000000000	0.00000000000000	33.11160600000000	0.00000000000000	0.00000000000000	0.00000000000000	0.00000000000000	
12.36829300000000	32.63332800000000	783.15522899999996	61.11494200000000	0.34589600000000	0.00000000000000	0.10145000000000	0.00000000000000	0.00000000000000	0.00000000000000	0.00000000000000	0.00000000000000	0.00000000000000	0.00000000000000	33.06308000000000	0.00000000000000	0.00000000000000	0.00000000000000	0.00000000000000	
